<?xml version="1.0" encoding="utf-8"?><!-- Uploaded to: SVG Repo, www.svgrepo.com, Generator: SVG Repo Mixer Tools -->
<svg width="800px" height="800px" viewBox="0 0 24 24" fill="none" xmlns="http://www.w3.org/2000/svg">
<path d="M18 11.75C17.9015 11.7505 17.8038 11.7313 17.7128 11.6935C17.6218 11.6557 17.5392 11.6001 17.47 11.53L12 6.06001L6.53 11.53C6.38782 11.6625 6.19978 11.7346 6.00548 11.7312C5.81118 11.7278 5.62579 11.649 5.48838 11.5116C5.35096 11.3742 5.27225 11.1888 5.26882 10.9945C5.2654 10.8002 5.33752 10.6122 5.47 10.47L11.47 4.47001C11.6106 4.32956 11.8012 4.25067 12 4.25067C12.1987 4.25067 12.3894 4.32956 12.53 4.47001L18.53 10.47C18.6705 10.6106 18.7493 10.8013 18.7493 11C18.7493 11.1988 18.6705 11.3894 18.53 11.53C18.4608 11.6001 18.3782 11.6557 18.2872 11.6935C18.1962 11.7313 18.0985 11.7505 18 11.75Z" fill="#000000"/>
<path d="M12 19.75C11.8019 19.7474 11.6126 19.6676 11.4725 19.5275C11.3324 19.3874 11.2526 19.1981 11.25 19V5C11.25 4.80109 11.329 4.61032 11.4697 4.46967C11.6103 4.32902 11.8011 4.25 12 4.25C12.1989 4.25 12.3897 4.32902 12.5303 4.46967C12.671 4.61032 12.75 4.80109 12.75 5V19C12.7474 19.1981 12.6676 19.3874 12.5275 19.5275C12.3874 19.6676 12.1981 19.7474 12 19.75Z" fill="#000000"/>
</svg>