<?xml version="1.0" encoding="iso-8859-1"?>
<!-- Uploaded to: SVG Repo, www.svgrepo.com, Generator: SVG Repo Mixer Tools -->
<svg fill="#000000" height="800px" width="800px" version="1.1" id="Capa_1" xmlns="http://www.w3.org/2000/svg" xmlns:xlink="http://www.w3.org/1999/xlink" 
	 viewBox="0 0 367.027 367.027" xml:space="preserve">
<g id="XMLID_844_">
	<polygon id="XMLID_845_" points="213.36,131.421 183.514,161.268 153.667,131.421 132.454,152.634 162.301,182.48 132.454,212.327 
		153.667,233.54 183.514,203.693 213.36,233.54 234.573,212.327 204.727,182.48 234.573,152.634 	"/>
	<path id="XMLID_849_" d="M217.491,0l-33.978,32.531L149.536,0H18.514v367.027h130.76l34.24-34.24l34.24,34.24h130.76V0H217.491z
		 M318.514,337.027H230.18l-25.453-25.453l29.847-29.847l-21.213-21.213l-29.847,29.847l-29.847-29.847l-21.213,21.213
		l29.847,29.847l-25.453,25.453H48.514V30h88.977l24.333,23.297l-29.136,27.896l20.746,21.67l30.08-28.799l30.08,28.799
		l20.746-21.67l-29.136-27.896L229.537,30h88.977V337.027z"/>
</g>
</svg>